<svg width="151" height="37" viewBox="0 0 151 37" fill="none" xmlns="http://www.w3.org/2000/svg">
<path d="M10.1641 17.944L21.2012 6.42532C21.4751 6.1394 21.9431 6.45361 21.7748 6.81052L18.2054 14.3826C17.9342 14.9579 18.3593 15.6168 19.0016 15.6168H24.8266C25.632 15.6168 26.0128 16.5985 25.4136 17.1303L11.7861 29.2226C11.4855 29.4894 11.0415 29.1263 11.2506 28.7847L16.1843 20.7254C16.5384 20.1471 16.1168 19.4085 15.4326 19.4085H10.802C10.031 19.4085 9.63406 18.4972 10.1641 17.944Z" fill="url(#paint0_linear)"/>
<circle cx="18.0399" cy="18.0399" r="16.4614" stroke="url(#paint1_linear)" stroke-width="3.15698"/>
<path d="M51.5205 18.7227C51.5205 17.714 51.6837 16.745 52.01 15.8154C52.3462 14.8859 52.8456 14.0652 53.5081 13.3532C54.1805 12.6412 55.0062 12.0726 55.9852 11.6474C56.974 11.2222 58.1063 11.0096 59.3819 11.0096C60.618 11.0096 61.6909 11.1826 62.6006 11.5287C63.5104 11.8748 64.2718 12.3347 64.8849 12.9082C65.5079 13.4718 65.9875 14.1245 66.3237 14.8661C66.6599 15.5979 66.8676 16.3593 66.9467 17.1504H62.304C62.2051 16.4977 61.9332 15.9687 61.4882 15.5633C61.0531 15.1578 60.3609 14.9551 59.4116 14.9551C58.8677 14.9551 58.3881 15.059 57.9728 15.2666C57.5575 15.4644 57.2163 15.7363 56.9493 16.0824C56.6922 16.4285 56.4945 16.829 56.356 17.2839C56.2275 17.7388 56.1632 18.2183 56.1632 18.7227C56.1632 19.227 56.2275 19.7115 56.356 20.1763C56.4945 20.6312 56.6972 21.0316 56.9642 21.3777C57.241 21.714 57.597 21.9859 58.0321 22.1935C58.4672 22.3913 58.9864 22.4902 59.5896 22.4902C60.4004 22.4902 61.0086 22.327 61.414 22.0007C61.8194 21.6645 62.126 21.18 62.3336 20.5471H66.9763C66.8577 21.3777 66.6154 22.154 66.2495 22.8759C65.8836 23.5977 65.3843 24.2207 64.7514 24.7448C64.1284 25.2689 63.367 25.6842 62.4671 25.9908C61.5673 26.2973 60.5389 26.4506 59.3819 26.4506C58.1063 26.4506 56.974 26.238 55.9852 25.8128C55.0062 25.3876 54.1805 24.819 53.5081 24.107C52.8456 23.395 52.3462 22.5743 52.01 21.6447C51.6837 20.7152 51.5205 19.7412 51.5205 18.7227Z" fill="#131128"/>
<path d="M66.9929 18.7227C66.9929 17.6745 67.1759 16.6856 67.5418 15.7561C67.9175 14.8266 68.4564 14.0108 69.1585 13.3087C69.8606 12.6066 70.711 12.0479 71.7098 11.6326C72.7085 11.2172 73.8358 11.0096 75.0917 11.0096C76.3673 11.0096 77.5045 11.2172 78.5032 11.6326C79.5119 12.0479 80.3623 12.6066 81.0545 13.3087C81.7566 14.0108 82.2955 14.8266 82.6713 15.7561C83.047 16.6856 83.2349 17.6745 83.2349 18.7227C83.2349 19.7709 83.047 20.7647 82.6713 21.7041C82.2955 22.6336 81.7566 23.4494 81.0545 24.1515C80.3623 24.8536 79.5119 25.4123 78.5032 25.8276C77.5045 26.2429 76.3673 26.4506 75.0917 26.4506C73.8358 26.4506 72.7085 26.2429 71.7098 25.8276C70.711 25.4123 69.8606 24.8536 69.1585 24.1515C68.4564 23.4494 67.9175 22.6336 67.5418 21.7041C67.1759 20.7745 66.9929 19.7807 66.9929 18.7227ZM71.6356 18.7227C71.6356 19.2468 71.7147 19.7362 71.8729 20.1911C72.041 20.6361 72.2734 21.0316 72.5701 21.3777C72.8766 21.714 73.2425 21.9809 73.6677 22.1787C74.0929 22.3666 74.5676 22.4605 75.0917 22.4605C75.6158 22.4605 76.0954 22.3666 76.5305 22.1787C76.9754 21.9809 77.3463 21.714 77.6429 21.3777C77.9495 21.0316 78.1868 20.6361 78.3549 20.1911C78.5329 19.7461 78.6219 19.2566 78.6219 18.7227C78.6219 18.2183 78.5329 17.7388 78.3549 17.2839C78.1868 16.829 77.9495 16.4335 77.6429 16.0973C77.3463 15.761 76.9804 15.494 76.5453 15.2963C76.1102 15.0985 75.6257 14.9996 75.0917 14.9996C74.5676 14.9996 74.0929 15.0985 73.6677 15.2963C73.2425 15.494 72.8766 15.761 72.5701 16.0973C72.2734 16.4335 72.041 16.829 71.8729 17.2839C71.7147 17.7388 71.6356 18.2183 71.6356 18.7227Z" fill="#131128"/>
<path d="M84.3491 26.0501V11.4101H88.9918V13.5312C89.3973 12.7401 90.0103 12.127 90.8311 11.6919C91.6518 11.2568 92.6407 11.0393 93.7977 11.0393C94.747 11.0393 95.5677 11.1876 96.2599 11.4842C96.9521 11.7809 97.5009 12.1913 97.9064 12.7154C98.3711 13.279 98.6777 13.9317 98.826 14.6733C98.9743 15.4149 99.0485 16.3099 99.0485 17.358V26.0501H94.4058V18.5447C94.4058 17.4965 94.2179 16.6461 93.8422 15.9934C93.4664 15.3309 92.794 14.9996 91.8249 14.9996C90.8756 14.9996 90.1636 15.3358 89.689 16.0083C89.2242 16.6708 88.9918 17.5657 88.9918 18.693V26.0501H84.3491Z" fill="#131128"/>
<path d="M100.074 18.7227C100.074 17.625 100.242 16.6065 100.578 15.6671C100.924 14.7277 101.409 13.9218 102.032 13.2493C102.665 12.567 103.421 12.0281 104.301 11.6326C105.181 11.237 106.15 11.0393 107.208 11.0393C107.673 11.0393 108.138 11.1085 108.603 11.2469C109.067 11.3755 109.498 11.5535 109.893 11.7809C110.289 11.9984 110.64 12.2605 110.946 12.567C111.253 12.8637 111.495 13.1752 111.673 13.5015V4.7798H116.316V26.0501H111.673V23.9883C111.495 24.3344 111.253 24.6558 110.946 24.9525C110.64 25.2392 110.289 25.4914 109.893 25.7089C109.498 25.9166 109.067 26.0847 108.603 26.2132C108.138 26.3517 107.673 26.4209 107.208 26.4209C106.16 26.4209 105.191 26.2231 104.301 25.8276C103.421 25.4321 102.665 24.8931 102.032 24.2108C101.409 23.5285 100.924 22.7176 100.578 21.7782C100.242 20.8388 100.074 19.8203 100.074 18.7227ZM104.687 18.7227C104.687 19.227 104.771 19.7115 104.939 20.1763C105.117 20.6312 105.354 21.0267 105.651 21.3629C105.957 21.6892 106.323 21.9562 106.749 22.1639C107.174 22.3617 107.648 22.4605 108.172 22.4605C108.697 22.4605 109.171 22.3617 109.596 22.1639C110.032 21.9562 110.397 21.6892 110.694 21.3629C111.001 21.0267 111.238 20.6312 111.406 20.1763C111.584 19.7214 111.673 19.2369 111.673 18.7227C111.673 18.2183 111.584 17.7437 111.406 17.2987C111.238 16.8537 111.001 16.4582 110.694 16.1121C110.397 15.766 110.036 15.494 109.611 15.2963C109.186 15.0985 108.706 14.9996 108.172 14.9996C107.648 14.9996 107.174 15.0985 106.749 15.2963C106.323 15.494 105.957 15.766 105.651 16.1121C105.354 16.4582 105.117 16.8537 104.939 17.2987C104.771 17.7437 104.687 18.2183 104.687 18.7227Z" fill="#131128"/>
<path d="M118.261 20.1021V11.4101H122.874V18.9155C122.874 19.9637 123.061 20.819 123.437 21.4816C123.813 22.1342 124.485 22.4605 125.454 22.4605C126.424 22.4605 127.136 22.1293 127.59 21.4667C128.055 20.7943 128.288 19.8895 128.288 18.7523V11.4101H132.93V26.0501H128.288V23.9587C127.882 24.73 127.269 25.3332 126.448 25.7683C125.628 26.2034 124.639 26.4209 123.482 26.4209C122.532 26.4209 121.712 26.2726 121.019 25.9759C120.337 25.6793 119.793 25.2689 119.388 24.7448C118.923 24.1811 118.617 23.5285 118.468 22.7869C118.33 22.0452 118.261 21.1503 118.261 20.1021Z" fill="#131128"/>
<path d="M134.4 6.5449C134.4 5.71426 134.682 5.01712 135.246 4.45347C135.819 3.88983 136.531 3.608 137.382 3.608C137.807 3.608 138.203 3.68217 138.569 3.83049C138.934 3.97882 139.251 4.18648 139.518 4.45347C139.795 4.71058 140.007 5.02207 140.156 5.38794C140.314 5.75382 140.393 6.13947 140.393 6.5449C140.393 6.95033 140.314 7.33104 140.156 7.68703C140.007 8.04302 139.795 8.35945 139.518 8.63633C139.251 8.90333 138.934 9.11593 138.569 9.27415C138.203 9.42247 137.807 9.49664 137.382 9.49664C136.957 9.49664 136.566 9.42247 136.21 9.27415C135.854 9.11593 135.538 8.90333 135.261 8.63633C134.994 8.35945 134.781 8.04302 134.623 7.68703C134.475 7.33104 134.4 6.95033 134.4 6.5449ZM135.068 26.0501V11.4101H139.711V26.0501H135.068Z" fill="#131128"/>
<path d="M140.395 14.8661V11.4101H142.694V7.06405H147.322V11.4101H150.659V14.8661H147.322V20.1021C147.322 20.646 147.371 21.0811 147.47 21.4074C147.569 21.7238 147.707 21.9711 147.885 22.149C148.073 22.3172 148.286 22.4358 148.523 22.505C148.77 22.5644 149.037 22.594 149.324 22.594C149.611 22.594 149.903 22.5891 150.199 22.5792C150.506 22.5594 150.773 22.5298 151 22.4902V26.0501C150.654 26.1094 150.219 26.1638 149.695 26.2132C149.181 26.2627 148.582 26.2874 147.9 26.2874C147.356 26.2874 146.778 26.2479 146.165 26.1687C145.552 26.0896 144.988 25.882 144.474 25.5458C143.96 25.2096 143.534 24.6954 143.198 24.0032C142.862 23.3011 142.694 22.3419 142.694 21.1256V14.8661H140.395Z" fill="#131128"/>
<defs>
<linearGradient id="paint0_linear" x1="16.9123" y1="0.451033" x2="17.1378" y2="33.8248" gradientUnits="userSpaceOnUse">
<stop stop-color="#30C1FF"/>
<stop offset="1" stop-color="#30FFDA"/>
</linearGradient>
<linearGradient id="paint1_linear" x1="15.9782" y1="-9.19677" x2="16.2209" y2="43.1555" gradientUnits="userSpaceOnUse">
<stop stop-color="#30C1FF"/>
<stop offset="1" stop-color="#30FFDA"/>
</linearGradient>
</defs>
</svg>
