<svg width="150" height="37" viewBox="0 0 150 37" fill="none" xmlns="http://www.w3.org/2000/svg">
<path d="M10.0967 18.4667L21.0607 7.02432C21.3328 6.74029 21.7977 7.05242 21.6305 7.40696L18.0847 14.9289C17.8153 15.5004 18.2376 16.155 18.8757 16.155H24.6621C25.4622 16.155 25.8405 17.1301 25.2452 17.6584L11.7079 29.6706C11.4093 29.9356 10.9683 29.5749 11.176 29.2357L16.077 21.2297C16.4288 20.6552 16.01 19.9215 15.3303 19.9215H10.7304C9.96449 19.9215 9.57017 19.0163 10.0967 18.4667Z" fill="white"/>
<circle cx="17.9204" cy="18.562" r="16.1015" stroke="white" stroke-width="3.63784"/>
<path d="M51.1791 19.2402C51.1791 18.2383 51.3412 17.2756 51.6653 16.3522C51.9993 15.4289 52.4954 14.6136 53.1535 13.9063C53.8215 13.199 54.6417 12.6342 55.6142 12.2118C56.5965 11.7894 57.7212 11.5782 58.9884 11.5782C60.2163 11.5782 61.2821 11.7501 62.1858 12.0939C63.0896 12.4377 63.8459 12.8945 64.455 13.4643C65.0738 14.0242 65.5502 14.6725 65.8842 15.4092C66.2182 16.1361 66.4245 16.8925 66.5031 17.6784H61.8911C61.7929 17.03 61.5228 16.5045 61.0807 16.1017C60.6485 15.699 59.9609 15.4976 59.0179 15.4976C58.4776 15.4976 58.0012 15.6008 57.5886 15.8071C57.1761 16.0035 56.8372 16.2736 56.5719 16.6175C56.3165 16.9613 56.1201 17.3591 55.9826 17.811C55.8549 18.2628 55.791 18.7392 55.791 19.2402C55.791 19.7412 55.8549 20.2225 55.9826 20.6842C56.1201 21.1361 56.3215 21.5339 56.5867 21.8777C56.8617 22.2117 57.2154 22.4818 57.6476 22.6881C58.0798 22.8846 58.5955 22.9828 59.1947 22.9828C60.0002 22.9828 60.6043 22.8207 61.0071 22.4966C61.4098 22.1626 61.7143 21.6813 61.9206 21.0526H66.5325C66.4147 21.8777 66.174 22.6488 65.8106 23.3659C65.4471 24.083 64.951 24.7019 64.3224 25.2225C63.7035 25.7431 62.9471 26.1557 62.0532 26.4602C61.1593 26.7647 60.1377 26.917 58.9884 26.917C57.7212 26.917 56.5965 26.7058 55.6142 26.2834C54.6417 25.861 53.8215 25.2961 53.1535 24.5889C52.4954 23.8816 51.9993 23.0663 51.6653 22.1429C51.3412 21.2196 51.1791 20.252 51.1791 19.2402Z" fill="white"/>
<path d="M66.5491 19.2402C66.5491 18.199 66.7308 17.2167 67.0942 16.2933C67.4675 15.3699 68.0029 14.5595 68.7003 13.8621C69.3977 13.1646 70.2425 12.6096 71.2347 12.1971C72.2268 11.7845 73.3466 11.5782 74.5942 11.5782C75.8613 11.5782 76.991 11.7845 77.9831 12.1971C78.9851 12.6096 79.8299 13.1646 80.5175 13.8621C81.2149 14.5595 81.7503 15.3699 82.1235 16.2933C82.4968 17.2167 82.6835 18.199 82.6835 19.2402C82.6835 20.2815 82.4968 21.2687 82.1235 22.2019C81.7503 23.1252 81.2149 23.9356 80.5175 24.6331C79.8299 25.3305 78.9851 25.8855 77.9831 26.2981C76.991 26.7107 75.8613 26.917 74.5942 26.917C73.3466 26.917 72.2268 26.7107 71.2347 26.2981C70.2425 25.8855 69.3977 25.3305 68.7003 24.6331C68.0029 23.9356 67.4675 23.1252 67.0942 22.2019C66.7308 21.2785 66.5491 20.2913 66.5491 19.2402ZM71.161 19.2402C71.161 19.7608 71.2396 20.2471 71.3967 20.6989C71.5637 21.141 71.7946 21.5339 72.0893 21.8777C72.3938 22.2117 72.7572 22.4769 73.1796 22.6734C73.602 22.86 74.0735 22.9533 74.5942 22.9533C75.1148 22.9533 75.5912 22.86 76.0234 22.6734C76.4654 22.4769 76.8338 22.2117 77.1285 21.8777C77.433 21.5339 77.6688 21.141 77.8358 20.6989C78.0126 20.2569 78.101 19.7707 78.101 19.2402C78.101 18.7392 78.0126 18.2628 77.8358 17.811C77.6688 17.3591 77.433 16.9662 77.1285 16.6322C76.8338 16.2982 76.4704 16.033 76.0381 15.8365C75.6059 15.6401 75.1246 15.5418 74.5942 15.5418C74.0735 15.5418 73.602 15.6401 73.1796 15.8365C72.7572 16.033 72.3938 16.2982 72.0893 16.6322C71.7946 16.9662 71.5637 17.3591 71.3967 17.811C71.2396 18.2628 71.161 18.7392 71.161 19.2402Z" fill="white"/>
<path d="M83.7903 26.5191V11.9761H88.4023V14.0831C88.805 13.2973 89.414 12.6882 90.2293 12.256C91.0447 11.8238 92.027 11.6077 93.1763 11.6077C94.1193 11.6077 94.9346 11.755 95.6222 12.0497C96.3098 12.3444 96.855 12.7521 97.2578 13.2727C97.7194 13.8326 98.024 14.4809 98.1713 15.2177C98.3186 15.9544 98.3923 16.8434 98.3923 17.8846V26.5191H93.7804V19.0634C93.7804 18.0222 93.5938 17.1774 93.2205 16.529C92.8472 15.8709 92.1792 15.5418 91.2166 15.5418C90.2736 15.5418 89.5663 15.8758 89.0948 16.5438C88.6331 17.2019 88.4023 18.0909 88.4023 19.2107V26.5191H83.7903Z" fill="white"/>
<path d="M99.4108 19.2402C99.4108 18.1499 99.5778 17.1381 99.9118 16.2049C100.256 15.2717 100.737 14.4711 101.356 13.8031C101.984 13.1254 102.736 12.59 103.61 12.1971C104.484 11.8042 105.447 11.6077 106.498 11.6077C106.96 11.6077 107.421 11.6765 107.883 11.814C108.345 11.9417 108.772 12.1185 109.165 12.3444C109.558 12.5605 109.907 12.8208 110.211 13.1254C110.516 13.42 110.756 13.7295 110.933 14.0536V5.38968H115.545V26.5191H110.933V24.471C110.756 24.8148 110.516 25.1341 110.211 25.4288C109.907 25.7136 109.558 25.9641 109.165 26.1802C108.772 26.3865 108.345 26.5535 107.883 26.6812C107.421 26.8187 106.96 26.8875 106.498 26.8875C105.457 26.8875 104.494 26.691 103.61 26.2981C102.736 25.9052 101.984 25.3698 101.356 24.692C100.737 24.0142 100.256 23.2087 99.9118 22.2755C99.5778 21.3424 99.4108 20.3306 99.4108 19.2402ZM103.993 19.2402C103.993 19.7412 104.077 20.2225 104.244 20.6842C104.421 21.1361 104.656 21.529 104.951 21.863C105.256 22.1871 105.619 22.4524 106.041 22.6586C106.464 22.8551 106.935 22.9533 107.456 22.9533C107.977 22.9533 108.448 22.8551 108.87 22.6586C109.303 22.4524 109.666 22.1871 109.961 21.863C110.265 21.529 110.501 21.1361 110.668 20.6842C110.845 20.2323 110.933 19.751 110.933 19.2402C110.933 18.7392 110.845 18.2677 110.668 17.8257C110.501 17.3837 110.265 16.9907 109.961 16.6469C109.666 16.3031 109.308 16.033 108.885 15.8365C108.463 15.6401 107.986 15.5418 107.456 15.5418C106.935 15.5418 106.464 15.6401 106.041 15.8365C105.619 16.033 105.256 16.3031 104.951 16.6469C104.656 16.9907 104.421 17.3837 104.244 17.8257C104.077 18.2677 103.993 18.7392 103.993 19.2402Z" fill="white"/>
<path d="M117.477 20.6105V11.9761H122.06V19.4318C122.06 20.473 122.246 21.3227 122.62 21.9809C122.993 22.6292 123.661 22.9533 124.623 22.9533C125.586 22.9533 126.293 22.6243 126.745 21.9661C127.207 21.2982 127.438 20.3993 127.438 19.2697V11.9761H132.05V26.5191H127.438V24.4415C127.035 25.2077 126.426 25.8069 125.611 26.2392C124.795 26.6714 123.813 26.8875 122.664 26.8875C121.721 26.8875 120.905 26.7401 120.218 26.4454C119.54 26.1508 119 25.7431 118.597 25.2225C118.135 24.6626 117.831 24.0142 117.683 23.2775C117.546 22.5408 117.477 21.6518 117.477 20.6105Z" fill="white"/>
<path d="M133.51 7.1431C133.51 6.31796 133.79 5.62544 134.35 5.06552C134.92 4.5056 135.627 4.22565 136.472 4.22565C136.894 4.22565 137.287 4.29932 137.651 4.44667C138.014 4.59401 138.328 4.8003 138.594 5.06552C138.869 5.32092 139.08 5.63035 139.227 5.9938C139.384 6.35725 139.463 6.74035 139.463 7.1431C139.463 7.54585 139.384 7.92403 139.227 8.27767C139.08 8.6313 138.869 8.94564 138.594 9.22068C138.328 9.4859 138.014 9.6971 137.651 9.85427C137.287 10.0016 136.894 10.0753 136.472 10.0753C136.049 10.0753 135.661 10.0016 135.308 9.85427C134.954 9.6971 134.64 9.4859 134.365 9.22068C134.1 8.94564 133.888 8.6313 133.731 8.27767C133.584 7.92403 133.51 7.54585 133.51 7.1431ZM134.173 26.5191V11.9761H138.785V26.5191H134.173Z" fill="white"/>
<path d="M139.465 15.4092V11.9761H141.749V7.65881H146.346V11.9761H149.661V15.4092H146.346V20.6105C146.346 21.1508 146.395 21.583 146.493 21.9072C146.591 22.2215 146.729 22.4671 146.906 22.6439C147.092 22.8109 147.304 22.9288 147.539 22.9975C147.785 23.0565 148.05 23.086 148.335 23.086C148.62 23.086 148.91 23.081 149.204 23.0712C149.509 23.0516 149.774 23.0221 150 22.9828V26.5191C149.656 26.5781 149.224 26.6321 148.703 26.6812C148.193 26.7303 147.598 26.7549 146.92 26.7549C146.38 26.7549 145.806 26.7156 145.197 26.637C144.588 26.5584 144.028 26.3521 143.517 26.0181C143.006 25.6842 142.584 25.1734 142.25 24.4857C141.916 23.7883 141.749 22.8355 141.749 21.6272V15.4092H139.465Z" fill="white"/>
</svg>
